<?xml version="1.0" encoding="UTF-8"?>
<svg id="Layer_1" data-name="Layer 1" xmlns="http://www.w3.org/2000/svg" viewBox="0 0 118.36 118.36">
  <defs>
    <style>
      .cls-1 {
        fill: #44749c;
        stroke: #44749c;
        stroke-miterlimit: 10;
      }
    </style>
  </defs>
  <path class="cls-1" d="M90.37,16.51l-5.3-.41.3,4.96-8.22,21.23c-1.75-.7-3.66-1.34-5.75-1.89-1.91-.5-3.82-.87-5.7-1.12l-3.91-24.29-3.68-.1-1.23,4.11v.03c-.53,1.35-4.64,11.68-8.09,20.69-10.75,1.86-18.38,5.99-18.5,6.06-.87.47-21.37,11.68-16.93,23.8.78,2.14,2.07,3.57,3.83,4.25,2.66,1.03,6.32.33,10.91-2.07,6.29-3.3,11.5-8.3,15.05-14.47.95-1.65,1.6-3.11,1.93-4.34.5-1.83,2.32-6.78,4.44-12.34,3.37-.55,7.04-.86,10.86-.75l5.32,31.6,1.41.21,11.09-27.83c14.19,6.34,16.73,17.16,16.75,17.29.03.14,3.08,14.59-11.52,29.09-14.61,14.51-32.69,10.34-32.93,10.29-.08,0-8.25-.91-12.3-6.72-2.39-3.42-2.9-7.88-1.52-13.25,3.44-13.42,11.84-15.97,16.13-16.37l.94.21s1.58,2.03,3.16-.49c1.36-2.16-4.38-.8-6.06-.36-4.81,1.04-12.04,4.66-15.14,16.77-1.45,5.67-.89,10.41,1.67,14.08,4.31,6.18,12.66,7.1,12.95,7.13.14.03,11.21,2.6,23.15-3.04,3.56-1.68,7.2-4.09,10.65-7.52,15.01-14.91,11.83-29.87,11.79-30.01-.03-.15-.85-3.81-4.3-8.19-2.39-3.04-6.46-6.87-13.06-9.81l8.36-20.98,3.42-5.41ZM44.13,52.68c-.31,1.15-.93,2.53-1.83,4.1-3.45,6.01-8.52,10.88-14.64,14.08-4.31,2.26-7.71,2.94-10.08,2.02-1.48-.57-2.57-1.8-3.26-3.66-4.15-11.3,16.25-22.46,16.46-22.58.03-.02.53-.29,1.42-.71,2.6-1.23,8.56-3.75,16.19-5.14-2.04,5.35-3.77,10.06-4.26,11.88ZM49.95,39.53c2.78-7.25,5.93-15.22,7.27-18.6l3.01,17.91c-3.61-.09-7.07.19-10.28.69ZM69.41,62.27l-3.53-21.96c1.74.25,3.5.58,5.28,1.05,2.05.54,3.92,1.17,5.64,1.86l-7.38,19.05Z"/>
</svg>